<svg viewBox="0 0 1040.69 142.5" xmlns="http://www.w3.org/2000/svg" data-name="Layer 2" id="Layer_2">
  <defs>
    <style>
      .cls-1 {
        fill: #f4f4f4;
        stroke: #f4f4f4;
        stroke-miterlimit: 10;
        stroke-width: 8.5px;
      }
    </style>
  </defs>
  <g data-name="Layer 1" id="Layer_1-2">
    <g>
      <path d="M45.32,23.7H13.02c-4.84,0-8.77-3.93-8.77-8.77v-7.44h99.42v7.44c0,4.84-3.93,8.77-8.77,8.77h-32.29v111.31h-17.29V23.7Z" class="cls-1"></path>
      <path d="M140.41,7.49h82.31v16.21h-65.02v38.01h60.51v16.21h-60.51v40.89h68.26v16.21h-85.55V7.49Z" class="cls-1"></path>
      <path d="M268.83,12.34v-4.85h82.31v16.21l-70.83.11c-6.34,0-11.48-5.13-11.48-11.46ZM346.63,61.71v16.21h-60.51v40.89h68.26v16.21h-85.55v-61.78c0-6.31,5.11-11.43,11.43-11.44l66.38-.08Z" class="cls-1"></path>
      <path d="M574.29,63.69v62.86c-3.12,1.92-6.66,3.6-10.63,5.04-3.96,1.44-8.08,2.67-12.34,3.69-4.26,1.02-8.58,1.77-12.97,2.25-4.38.48-8.5.72-12.34.72-10.8,0-20.44-1.8-28.9-5.4-8.46-3.6-15.61-8.46-21.43-14.59-5.83-6.12-10.27-13.24-13.33-21.34-3.06-8.11-4.59-16.66-4.59-25.67,0-9.48,1.65-18.31,4.95-26.48,3.3-8.16,7.86-15.25,13.69-21.25,5.82-6,12.82-10.72,20.98-14.14,8.16-3.42,17.11-5.13,26.84-5.13,11.77,0,21.37,1.47,28.82,4.41,7.45,2.94,13.69,7,18.73,12.16l-12.25,13.15c-5.28-5.04-10.87-8.56-16.75-10.54-5.88-1.98-12.07-2.97-18.55-2.97-7.33,0-13.93,1.35-19.81,4.05-5.88,2.7-10.93,6.33-15.13,10.9-4.2,4.56-7.45,9.94-9.73,16.12-2.29,6.18-3.42,12.76-3.42,19.72s1.26,13.9,3.78,20.08c2.52,6.19,6,11.56,10.45,16.12,4.44,4.57,9.66,8.14,15.67,10.72,6,2.59,12.54,3.87,19.63,3.87,6.12,0,11.91-.57,17.38-1.71,5.47-1.14,10.11-2.79,13.96-4.95v-35.48h-28.28v-16.21h45.56Z" class="cls-1"></path>
      <path d="M695.14,88.36l-23.78-58.54h-.36l-24.13,58.54-6.13,15.13-12.61,31.52h-20.17l53.07-120.43c1.9-4.31,6.16-7.09,10.87-7.09h.09c4.75,0,9.05,2.83,10.92,7.21l51.49,120.31h-20.17l-12.79-31.52-6.3-15.13Z" class="cls-1"></path>
      <path d="M768.08,7.49h25.76l40.52,96.54h.72l40.17-96.54h25.76v127.52h-17.29V30.19h-.36l-43.04,104.82h-11.53l-43.05-104.82h-.36v104.82h-17.29V7.49Z" class="cls-1"></path>
      <path d="M950.89,7.49h82.31v16.21h-65.02v38.01h60.51v16.21h-60.51v40.89h68.26v16.21h-85.55V7.49Z" class="cls-1"></path>
    </g>
  </g>
</svg>
